<?xml version="1.0" encoding="UTF-8" standalone="no"?>
<!-- Generator: Adobe Illustrator 23.0.2, SVG Export Plug-In . SVG Version: 6.00 Build 0)  -->

<svg
   xmlns:dc="http://purl.org/dc/elements/1.1/"
   xmlns:cc="http://creativecommons.org/ns#"
   xmlns:rdf="http://www.w3.org/1999/02/22-rdf-syntax-ns#"
   xmlns:svg="http://www.w3.org/2000/svg"
   xmlns="http://www.w3.org/2000/svg"
   xmlns:sodipodi="http://sodipodi.sourceforge.net/DTD/sodipodi-0.dtd"
   xmlns:inkscape="http://www.inkscape.org/namespaces/inkscape"
   version="1.1"
   id="color_-_PANTONE"
   x="0px"
   y="0px"
   viewBox="0 0 483.75 244.75"
   style="enable-background:new 0 0 483.75 244.75;"
   xml:space="preserve"
   sodipodi:docname="ELI-Beamlines-pantone.svg"
   inkscape:version="0.92.2 (5c3e80d, 2017-08-06)"><metadata
     id="metadata79"><rdf:RDF><cc:Work
         rdf:about=""><dc:format>image/svg+xml</dc:format><dc:type
           rdf:resource="http://purl.org/dc/dcmitype/StillImage" /></cc:Work></rdf:RDF></metadata><defs
     id="defs77" /><sodipodi:namedview
     pagecolor="#ffffff"
     bordercolor="#666666"
     borderopacity="1"
     objecttolerance="10"
     gridtolerance="10"
     guidetolerance="10"
     inkscape:pageopacity="0"
     inkscape:pageshadow="2"
     inkscape:window-width="2560"
     inkscape:window-height="1377"
     id="namedview75"
     showgrid="false"
     inkscape:zoom="0.60981912"
     inkscape:cx="241.875"
     inkscape:cy="122.375"
     inkscape:window-x="-8"
     inkscape:window-y="-8"
     inkscape:window-maximized="1"
     inkscape:current-layer="color_-_PANTONE" /><style
     type="text/css"
     id="style2">
	.st0{fill-rule:evenodd;clip-rule:evenodd;fill:#5F6062;}
	.st1{fill-rule:evenodd;clip-rule:evenodd;fill:#F15D22;}
	.st2{fill:#5F6062;}
</style><g
     id="g18"
     style="stroke:#999999;fill:#999999"><g
       id="g6"
       style="stroke:#999999;fill:#999999"><path
         class="st0"
         d="M133.08,144.77H75.04c0,9.41,2.58,16.64,7.74,21.7c4.56,4.4,10.43,6.61,17.59,6.61    c8.17,0,14.99-2.38,20.45-7.13l6.01,10.29c-2.21,2.2-5.59,4.11-10.15,5.71c-5.71,2.1-12.08,3.15-19.1,3.15    c-10.13,0-18.72-3.43-25.79-10.29C63.94,167.25,60,157.08,60,144.32c0-13.26,4.04-23.9,12.1-31.91    c7.22-7.16,15.76-10.74,25.64-10.74c11.48,0,20.47,3.23,26.99,9.69c6.32,6.21,9.47,14.44,9.47,24.7    C134.21,139.22,133.83,142.12,133.08,144.77L133.08,144.77z M98.42,113.69c-6.37,0-11.7,2.05-16.01,6.16    c-4.11,3.9-6.44,8.76-6.99,14.57H120c0-5.75-1.8-10.56-5.41-14.42C110.62,115.79,105.24,113.69,98.42,113.69z"
         id="path4"
         style="stroke:#999999;fill:#999999" /></g><g
       id="g10"
       style="stroke:#999999;fill:#999999"><path
         class="st1"
         d="M127.65,158.77V60h15.57v96.15c0,4.69,1.35,8.39,4.06,11.09c2.71,2.7,6.24,4.05,10.61,4.05v13.91    C137.73,185.2,127.65,176.39,127.65,158.77z"
         id="path8"
         style="stroke:#999999;fill:#999999" /></g><g
       id="g16"
       style="stroke:#999999;fill:#999999"><polygon
         class="st0"
         points="160.61,185.2 160.61,119.74 150.03,119.74 150.03,108.24 174.28,108.24 174.28,185.2 160.61,185.2       "
         id="polygon12"
         style="stroke:#999999;fill:#999999" /><path
         class="st0"
         d="M168.09,79.13c2.35,0,4.35,0.83,6.01,2.48c1.65,1.65,2.48,3.63,2.48,5.93c0,2.35-0.83,4.35-2.48,6    c-1.66,1.65-3.66,2.48-6.01,2.48c-2.3,0-4.28-0.83-5.94-2.48c-1.65-1.65-2.48-3.65-2.48-6c0-2.35,0.82-4.34,2.45-5.97    C163.75,79.95,165.74,79.13,168.09,79.13z"
         id="path14"
         style="stroke:#999999;fill:#999999" /></g></g><g
     id="g48"
     style="stroke:#999999;fill:#999999"><g
       id="g22"
       style="stroke:#999999;fill:#999999"><path
         class="st1"
         d="M348.24,100.71c-0.01-5.63-0.33-10.98-0.79-15.82c-0.47-4.84-1.09-9.18-1.65-12.8    c-1.13-7.25-1.99-11.72-0.8-12.06c0.58-0.16,1.6,0.74,2.84,2.61c1.24,1.86,2.69,4.69,4.07,8.33c1.38,3.64,2.66,8.1,3.6,13.15    c0.94,5.04,1.51,10.67,1.52,16.59c0.01,5.91-0.54,11.55-1.45,16.59c-0.91,5.05-2.18,9.51-3.54,13.16    c-1.35,3.65-2.79,6.49-4.02,8.36c-1.23,1.87-2.25,2.78-2.83,2.62c-1.19-0.34-0.37-4.81,0.73-12.07    C347.03,122.1,348.28,111.98,348.24,100.71z"
         id="path20"
         style="stroke:#999999;fill:#999999" /></g><g
       id="g26"
       style="stroke:#999999;fill:#999999"><path
         class="st1"
         d="M360.93,101.07c0.01-10.47-1-19.89-1.86-26.66c-0.85-6.78-1.43-10.97-0.32-11.24    c1.07-0.26,3.66,3.56,6.01,10.37c2.35,6.79,4.32,16.6,4.31,27.52c0.02,10.92-1.96,20.74-4.31,27.52    c-2.35,6.82-4.93,10.63-6.01,10.37c-1.11-0.26-0.53-4.46,0.32-11.24C359.93,120.96,360.95,111.54,360.93,101.07z"
         id="path24"
         style="stroke:#999999;fill:#999999" /></g><g
       id="g30"
       style="stroke:#999999;fill:#999999"><path
         class="st1"
         d="M374.18,101.12c0.01-8.19-0.71-15.57-1.3-20.89c-0.58-5.32-0.94-8.63-0.07-8.81c0.84-0.18,2.78,2.86,4.53,8.2    c1.75,5.33,3.22,12.98,3.2,21.5c0.01,8.52-1.46,16.17-3.21,21.5c-1.75,5.34-3.69,8.38-4.53,8.2c-0.87-0.18-0.51-3.49,0.08-8.81    C373.46,116.69,374.19,109.31,374.18,101.12z"
         id="path28"
         style="stroke:#999999;fill:#999999" /></g><g
       id="g34"
       style="stroke:#999999;fill:#999999"><path
         class="st1"
         d="M335.89,100.69c-0.01-5.6-0.36-10.93-0.89-15.74c-0.52-4.81-1.22-9.11-1.86-12.7    c-1.29-7.18-2.32-11.58-1.14-11.97c0.57-0.18,1.62,0.68,2.93,2.5c1.3,1.82,2.83,4.6,4.29,8.21c1.46,3.61,2.83,8.05,3.83,13.09    c1,5.04,1.61,10.67,1.62,16.59c0.02,5.92-0.57,11.56-1.54,16.6c-0.96,5.04-2.32,9.49-3.75,13.11c-1.43,3.62-2.96,6.41-4.24,8.24    c-1.29,1.83-2.33,2.7-2.91,2.52c-1.18-0.38-0.19-4.79,1.06-11.98C334.55,121.97,335.93,111.91,335.89,100.69z"
         id="path32"
         style="stroke:#999999;fill:#999999" /></g><g
       id="g38"
       style="stroke:#999999;fill:#999999"><path
         class="st1"
         d="M323.81,100.6c-0.01-5.24-0.33-10.22-0.8-14.73c-0.47-4.5-1.09-8.53-1.67-11.9    c-1.15-6.73-2.05-10.86-0.94-11.21c0.54-0.16,1.51,0.66,2.7,2.37c1.19,1.71,2.6,4.33,3.93,7.71c1.33,3.38,2.58,7.53,3.49,12.24    c0.91,4.7,1.47,9.96,1.49,15.49c0.02,5.52-0.51,10.79-1.39,15.5c-0.87,4.71-2.1,8.87-3.4,12.26c-1.3,3.39-2.69,6.02-3.86,7.74    c-1.18,1.72-2.14,2.55-2.68,2.39c-1.11-0.34-0.25-4.48,0.85-11.22C322.63,120.51,323.86,111.09,323.81,100.6z"
         id="path36"
         style="stroke:#999999;fill:#999999" /></g><g
       id="g42"
       style="stroke:#999999;fill:#999999"><path
         class="st1"
         d="M311.36,100.42c-0.02-8.89-0.85-16.88-1.51-22.64c-0.66-5.76-1.09-9.34-0.15-9.54    c0.91-0.2,3.05,3.07,4.98,8.86c1.93,5.77,3.56,14.07,3.58,23.31c0.05,9.24-1.52,17.55-3.4,23.33c-1.88,5.8-3.98,9.09-4.89,8.9    c-0.95-0.2-0.55-3.78,0.06-9.55C310.65,117.31,311.41,109.31,311.36,100.42z"
         id="path40"
         style="stroke:#999999;fill:#999999" /></g><g
       id="g46"
       style="stroke:#999999;fill:#999999"><path
         class="st1"
         d="M300.31,100.13c-0.03-11.1-1.33-19.99-0.15-20.12c0.58-0.06,1.67,2.09,2.63,5.71    c0.96,3.62,1.76,8.73,1.78,14.39c0.03,5.66-0.72,10.77-1.64,14.4c-0.92,3.64-1.99,5.8-2.57,5.74    C299.18,120.14,300.39,111.23,300.31,100.13z"
         id="path44"
         style="stroke:#999999;fill:#999999" /></g></g><g
     id="g68"
     style="stroke:#999999;fill:#999999"><path
       class="st2"
       d="M259.44,183.42l-1.23,1.79h-1.75v-28.17h3.5v9.54c0.33-0.45,0.95-0.87,1.87-1.25c0.92-0.38,1.81-0.57,2.7-0.57   c2.7,0,4.89,0.93,6.56,2.8c1.68,1.87,2.51,4.22,2.51,7.07c0,3.29-0.84,5.88-2.52,7.76c-1.68,1.88-3.96,2.83-6.83,2.83   c-0.93,0-1.85-0.17-2.75-0.52C260.59,184.33,259.91,183.91,259.44,183.42z M259.96,169.24v11.38c0,0.2,0.44,0.52,1.31,0.97   c0.87,0.45,1.53,0.67,1.99,0.67c2.38,0,4.09-0.57,5.12-1.71c1.03-1.14,1.55-3.06,1.55-5.74c0-2.23-0.6-3.98-1.8-5.23   c-1.2-1.25-2.82-1.88-4.86-1.88c-0.43,0-1.03,0.18-1.8,0.55C260.69,168.62,260.19,168.95,259.96,169.24z"
       id="path50"
       style="stroke:#999999;fill:#999999" /><path
       class="st2"
       d="M294.07,175.32h-14.21c0,2.31,0.63,4.08,1.9,5.32c1.12,1.08,2.55,1.62,4.31,1.62c2,0,3.67-0.58,5.01-1.75   l1.47,2.52c-0.54,0.54-1.37,1.01-2.48,1.4c-1.4,0.52-2.96,0.77-4.68,0.77c-2.48,0-4.58-0.84-6.31-2.52   c-1.93-1.85-2.89-4.35-2.89-7.47c0-3.25,0.99-5.86,2.96-7.82c1.77-1.76,3.86-2.63,6.28-2.63c2.81,0,5.01,0.79,6.61,2.38   c1.55,1.52,2.32,3.54,2.32,6.06C294.35,173.96,294.26,174.67,294.07,175.32z M285.59,167.7c-1.56,0-2.87,0.5-3.92,1.51   c-1.01,0.96-1.58,2.15-1.71,3.57h10.92c0-1.41-0.44-2.59-1.33-3.53C288.58,168.21,287.25,167.7,285.59,167.7z"
       id="path52"
       style="stroke:#999999;fill:#999999" /><path
       class="st2"
       d="M309.17,182.57c-1.4,1.76-3.54,2.63-6.43,2.63c-1.55,0-2.89-0.56-4.02-1.68c-1.13-1.12-1.7-2.52-1.7-4.19   c0-2,0.87-3.69,2.62-5.07c1.75-1.38,3.98-2.07,6.69-2.07c0.74,0,1.57,0.16,2.5,0.48c0-3.19-1.42-4.79-4.27-4.79   c-2.18,0-3.87,0.59-5.05,1.77l-1.47-2.93c0.66-0.54,1.58-1,2.75-1.39c1.17-0.39,2.29-0.58,3.36-0.58c2.86,0,4.94,0.65,6.23,1.95   c1.29,1.3,1.94,3.37,1.94,6.2v7.07c0,1.73,0.51,2.88,1.55,3.46v1.75c-1.42,0-2.49-0.2-3.19-0.61   C309.98,184.17,309.48,183.5,309.17,182.57z M308.84,175.15c-1.11-0.25-1.88-0.37-2.32-0.37c-1.77,0-3.21,0.45-4.33,1.36   c-1.12,0.91-1.67,1.98-1.67,3.22c0,2.05,1.21,3.07,3.63,3.07c1.77,0,3.33-0.84,4.69-2.52V175.15z"
       id="path54"
       style="stroke:#999999;fill:#999999" /><path
       class="st2"
       d="M340.67,184.84v-12.48c0-3.1-1.34-4.66-4.03-4.66c-0.85,0-1.64,0.26-2.38,0.78c-0.74,0.52-1.24,1.11-1.51,1.78   v14.58h-3.5v-14.01c0-0.97-0.37-1.73-1.1-2.29c-0.73-0.56-1.7-0.84-2.9-0.84c-0.7,0-1.44,0.27-2.24,0.81   c-0.79,0.54-1.35,1.13-1.69,1.79v14.54h-3.5v-19.72h2.28l1.16,2.29c1.35-1.77,3.04-2.65,5.06-2.65c2.82,0,4.8,0.88,5.93,2.63   c0.39-0.75,1.12-1.38,2.19-1.88c1.07-0.5,2.16-0.75,3.29-0.75c2.04,0,3.61,0.61,4.73,1.81c1.12,1.21,1.68,2.9,1.68,5.09v13.18   H340.67z"
       id="path56"
       style="stroke:#999999;fill:#999999" /><path
       class="st2"
       d="M349.41,179.26v-22.22h3.5v21.63c0,1.06,0.3,1.89,0.91,2.5c0.61,0.61,1.4,0.91,2.38,0.91v3.13   C351.68,185.2,349.41,183.22,349.41,179.26z"
       id="path58"
       style="stroke:#999999;fill:#999999" /><path
       class="st2"
       d="M361.95,184.84v-16.77h-2.71v-2.95h6.21v19.72H361.95z M363.87,157.66c0.6,0,1.11,0.21,1.54,0.63   c0.42,0.42,0.63,0.93,0.63,1.52c0,0.6-0.21,1.11-0.63,1.54c-0.42,0.42-0.94,0.63-1.54,0.63c-0.59,0-1.1-0.21-1.52-0.63   c-0.42-0.42-0.64-0.94-0.64-1.54c0-0.6,0.21-1.11,0.63-1.53C362.75,157.87,363.26,157.66,363.87,157.66z"
       id="path60"
       style="stroke:#999999;fill:#999999" /><path
       class="st2"
       d="M383.14,184.84v-11.47c0-2.1-0.32-3.57-0.95-4.41c-0.63-0.84-1.69-1.26-3.18-1.26c-0.8,0-1.63,0.24-2.5,0.72   c-0.87,0.48-1.54,1.07-2.01,1.77v14.66h-3.5v-19.72h2.39l1.1,2.54c1.15-1.94,3.04-2.91,5.65-2.91c4.32,0,6.48,2.63,6.48,7.88v12.21   H383.14z"
       id="path62"
       style="stroke:#999999;fill:#999999" /><path
       class="st2"
       d="M408.21,175.32H394c0,2.31,0.63,4.08,1.9,5.32c1.12,1.08,2.55,1.62,4.31,1.62c2,0,3.67-0.58,5.01-1.75   l1.47,2.52c-0.54,0.54-1.37,1.01-2.49,1.4c-1.4,0.52-2.96,0.77-4.68,0.77c-2.48,0-4.58-0.84-6.31-2.52   c-1.93-1.85-2.89-4.35-2.89-7.47c0-3.25,0.99-5.86,2.96-7.82c1.77-1.76,3.86-2.63,6.28-2.63c2.81,0,5.01,0.79,6.61,2.38   c1.54,1.52,2.32,3.54,2.32,6.06C408.49,173.96,408.4,174.67,408.21,175.32z M399.73,167.7c-1.56,0-2.87,0.5-3.92,1.51   c-1.01,0.96-1.58,2.15-1.71,3.57h10.92c0-1.41-0.44-2.59-1.32-3.53C402.71,168.21,401.4,167.7,399.73,167.7z"
       id="path64"
       style="stroke:#999999;fill:#999999" /><path
       class="st2"
       d="M410.88,183.66l1.23-3.31c1.95,1.28,3.52,1.92,4.71,1.92c2.16,0,3.24-0.91,3.24-2.73   c0-1.3-1.04-2.42-3.13-3.35c-1.61-0.74-2.69-1.3-3.25-1.68c-0.56-0.38-1.04-0.81-1.46-1.3c-0.41-0.48-0.72-1-0.92-1.54   c-0.2-0.55-0.3-1.13-0.3-1.76c0-1.62,0.59-2.88,1.77-3.79c1.18-0.91,2.72-1.36,4.62-1.36c1.44,0,3.25,0.45,5.43,1.36l-0.99,3.24   c-1.39-1.11-2.78-1.66-4.18-1.66c-0.83,0-1.54,0.2-2.11,0.59c-0.57,0.39-0.86,0.89-0.86,1.49c0,1.26,0.72,2.22,2.15,2.87l2.5,1.14   c1.53,0.7,2.65,1.5,3.35,2.39c0.7,0.9,1.05,2.02,1.05,3.37c0,1.77-0.62,3.15-1.86,4.15c-1.24,1-2.96,1.5-5.15,1.5   C414.67,185.2,412.71,184.69,410.88,183.66z"
       id="path66"
       style="stroke:#999999;fill:#999999" /></g><g
     id="g72"
     style="stroke:#999999;fill:#999999"><rect
       x="214.99"
       y="40"
       class="st2"
       width="1"
       height="164.75"
       id="rect70"
       style="stroke:#999999;fill:#999999" /></g></svg>